<svg width="18" height="18" viewBox="0 0 18 18" fill="none" xmlns="http://www.w3.org/2000/svg">
<mask id="mask0_3671_2127" style="mask-type:luminance" maskUnits="userSpaceOnUse" x="0" y="0" width="18" height="18">
<path d="M0 0H18V18H0V0Z" fill="white"/>
</mask>
<g mask="url(#mask0_3671_2127)">
<path fill-rule="evenodd" clip-rule="evenodd" d="M9 18C13.9706 18 18 13.9706 18 9C18 4.02944 13.9706 0 9 0C4.02944 0 0 4.02944 0 9C0 13.9706 4.02944 18 9 18ZM5.82602 5.46509C6.10124 5.1903 6.24236 5.07375 6.32761 5.05082C6.4287 5.02362 6.51694 5.04729 6.60902 5.12635C6.68695 5.19322 6.88388 5.39483 7.01869 5.54573C7.41476 5.98912 7.89745 6.59446 7.96505 6.73256C7.9855 6.77435 7.9875 6.78618 7.98404 6.84581C7.97767 6.95574 7.95528 6.99017 7.80827 7.11619C7.57381 7.31716 7.21445 7.69302 7.08883 7.86868C7.00663 7.98363 7.00427 8.05565 7.07846 8.18694C7.1415 8.29849 7.44804 8.7021 7.66409 8.95801C8.02575 9.38641 8.44486 9.78653 8.85191 10.092C9.15442 10.3191 9.57985 10.5808 9.86463 10.715C10.0682 10.8109 10.1318 10.8055 10.2622 10.6812C10.3872 10.5621 10.5344 10.3698 10.781 10.0037C10.8613 9.88438 10.9393 9.77645 10.9543 9.76381C10.9999 9.72527 11.0514 9.70708 11.1265 9.70299C11.1746 9.70038 11.2069 9.70312 11.233 9.71199C11.2832 9.72907 11.4139 9.81081 11.9448 10.157C12.1911 10.3176 12.4642 10.4946 12.5516 10.5503C13.0467 10.8657 13.1017 10.9081 13.1272 10.9941C13.1613 11.1088 13.1329 11.1826 12.9713 11.3982C12.7708 11.6659 12.4332 12.0275 12.1813 12.2445C11.977 12.4206 11.7143 12.5976 11.4554 12.7337L11.3434 12.7926L11.23 12.7925C10.8996 12.7923 10.588 12.7264 10.111 12.5559C8.99406 12.1566 8.0037 11.5721 7.13646 10.8005C6.97376 10.6557 6.59572 10.2747 6.45491 10.1136C5.98567 9.5767 5.63229 9.05306 5.32706 8.44238C5.10714 8.00235 4.90504 7.49165 4.87096 7.28991C4.82103 6.9943 4.94266 6.60755 5.21563 6.19394C5.37898 5.94646 5.55791 5.73278 5.82602 5.46509Z" fill="#F65018"/>
<path d="M5.82589 5.46513C6.10111 5.19034 6.24223 5.07379 6.32748 5.05086C6.42856 5.02366 6.5168 5.04733 6.60889 5.12639C6.68681 5.19326 6.88375 5.39488 7.01855 5.54577C7.41462 5.98917 7.89731 6.5945 7.96492 6.7326C7.98537 6.7744 7.98736 6.78622 7.98391 6.84586C7.97754 6.95578 7.95514 6.99022 7.80814 7.11624C7.57367 7.31721 7.21432 7.69306 7.0887 7.86873C7.00649 7.98367 7.00413 8.05569 7.07833 8.18698C7.14136 8.29853 7.4479 8.70214 7.66396 8.95805C8.02561 9.38645 8.44473 9.78657 8.85178 10.0921C9.15429 10.3191 9.57972 10.5808 9.86449 10.715C10.068 10.8109 10.1317 10.8055 10.2621 10.6813C10.3871 10.5621 10.5343 10.3699 10.7809 10.0037C10.8612 9.88442 10.9392 9.77649 10.9541 9.76385C10.9997 9.72532 11.0513 9.70712 11.1264 9.70303C11.1745 9.70042 11.2068 9.70316 11.2329 9.71203C11.283 9.72912 11.4138 9.81085 11.9447 10.157C12.191 10.3176 12.464 10.4946 12.5514 10.5503C13.0466 10.8658 13.1015 10.9081 13.1271 10.9941C13.1612 11.1089 13.1328 11.1826 12.9712 11.3982C12.7706 11.666 12.4331 12.0276 12.1812 12.2446C11.9768 12.4206 11.7142 12.5976 11.4552 12.7338L11.3432 12.7927L11.2299 12.7926C10.8994 12.7924 10.5878 12.7265 10.1109 12.556C8.99392 12.1566 8.00356 11.5722 7.13632 10.8005C6.97362 10.6557 6.59559 10.2747 6.45477 10.1136C5.98553 9.57675 5.63215 9.05311 5.32693 8.44242C5.107 8.00239 4.9049 7.4917 4.87083 7.28995C4.82089 6.99434 4.94252 6.60759 5.21549 6.19399C5.37884 5.9465 5.55778 5.73283 5.82589 5.46513Z" fill="white"/>
</g>
</svg>
