<svg width="18" height="18" viewBox="0 0 18 18" fill="none" xmlns="http://www.w3.org/2000/svg">
<path fill-rule="evenodd" clip-rule="evenodd" d="M2.57144 7.71429C2.57144 6.35032 3.11327 5.04221 4.07775 4.07774C5.04222 3.11326 6.35032 2.57143 7.71429 2.57143C9.07827 2.57143 10.3864 3.11326 11.3508 4.07774C12.3153 5.04221 12.8572 6.35032 12.8572 7.71429C12.8572 9.07826 12.3153 10.3864 11.3508 11.3508C10.3864 12.3153 9.07827 12.8571 7.71429 12.8571C6.35032 12.8571 5.04222 12.3153 4.07775 11.3508C3.11327 10.3864 2.57144 9.07826 2.57144 7.71429ZM7.71429 1.45879e-07C6.5002 -0.000154787 5.30321 0.286255 4.22068 0.835935C3.13814 1.38561 2.20063 2.18304 1.4844 3.16337C0.768163 4.14369 0.293424 5.27922 0.098794 6.47762C-0.0958363 7.67601 -0.00486261 8.90342 0.364316 10.06C0.733495 11.2166 1.37045 12.2698 2.22339 13.1338C3.07632 13.9978 4.12115 14.6483 5.27289 15.0324C6.42463 15.4165 7.65077 15.5233 8.85158 15.3441C10.0524 15.165 11.1939 14.705 12.1834 14.0014L15.8053 17.6233C16.0478 17.8575 16.3726 17.9871 16.7097 17.9842C17.0468 17.9812 17.3693 17.846 17.6076 17.6076C17.846 17.3692 17.9812 17.0468 17.9842 16.7097C17.9871 16.3725 17.8575 16.0478 17.6233 15.8053L14.0027 12.1847C14.8234 11.0306 15.3105 9.67288 15.4107 8.2603C15.511 6.84772 15.2204 5.43481 14.571 4.17639C13.9215 2.91796 12.9382 1.8626 11.7287 1.12593C10.5193 0.389263 9.13042 -0.000275208 7.71429 1.45879e-07Z" fill="#2F343F"/>
</svg>
