<svg width="18" height="18" viewBox="0 0 18 18" fill="none" xmlns="http://www.w3.org/2000/svg">
<path fill-rule="evenodd" clip-rule="evenodd" d="M9 18C13.9705 18 18 13.9705 18 9C18 4.02948 13.9705 0 9 0C4.02948 0 0 4.02948 0 9C0 13.9705 4.02948 18 9 18ZM12.9559 5.74992C13.0253 4.96152 12.1927 5.28624 12.1927 5.28624C11.5918 5.53502 10.9726 5.78758 10.3466 6.04291C10.3321 6.04881 10.3177 6.0547 10.3032 6.0606C8.316 6.87114 6.26328 7.7085 4.51458 8.53272C3.56634 8.88048 4.12146 9.22824 4.12146 9.22824L5.62464 9.6921C6.31854 9.9009 6.68844 9.66888 6.68844 9.66888L9.92628 7.46604C11.0826 6.67764 10.805 7.3269 10.5275 7.60518L8.09928 9.92394C7.7292 10.2487 7.91424 10.5269 8.07606 10.6661C8.53506 11.0709 9.66366 11.8116 10.1563 12.1349C10.2845 12.2189 10.3696 12.2749 10.3889 12.2893C10.5044 12.382 11.1289 12.7994 11.5452 12.7067C11.9615 12.6139 12.0078 12.0805 12.0078 12.0805L12.5627 8.43984C12.6457 7.8093 12.741 7.20313 12.8173 6.71841C12.8175 6.71729 12.8176 6.7162 12.8178 6.71508C12.8181 6.71288 12.8185 6.71071 12.8188 6.70853C12.8903 6.25347 12.9448 5.90702 12.9559 5.74992Z" fill="#1D98DC"/>
<path d="M12.9558 5.75014C13.0253 4.96174 12.1926 5.28646 12.1926 5.28646C11.5918 5.53524 10.9726 5.7878 10.3466 6.04313L10.3032 6.06082C8.31598 6.87136 6.26326 7.70872 4.51456 8.53294C3.56632 8.8807 4.12144 9.22846 4.12144 9.22846L5.62462 9.69232C6.31852 9.90112 6.68842 9.6691 6.68842 9.6691L9.92626 7.46626C11.0826 6.67786 10.805 7.32712 10.5275 7.6054L8.09926 9.92416C7.72918 10.2489 7.91422 10.5272 8.07604 10.6663C8.53504 11.0711 9.66364 11.8118 10.1563 12.1351C10.2845 12.2192 10.3696 12.2751 10.3889 12.2895C10.5044 12.3822 11.1288 12.7997 11.5452 12.707C11.9615 12.6141 12.0078 12.0807 12.0078 12.0807L12.5627 8.44006C12.6457 7.80952 12.741 7.20335 12.8173 6.71863L12.8178 6.7153L12.8188 6.70875C12.8903 6.25369 12.9447 5.90725 12.9558 5.75014Z" fill="white"/>
</svg>
