<svg width="18" height="18" viewBox="0 0 18 18" fill="none" xmlns="http://www.w3.org/2000/svg">
<path fill-rule="evenodd" clip-rule="evenodd" d="M9 18C13.9705 18 18 13.9705 18 9C18 4.02948 13.9705 0 9 0C4.02948 0 0 4.02948 0 9C0 13.9705 4.02948 18 9 18ZM4.5 6.12C4.57308 9.62784 6.327 11.736 9.40194 11.736H9.57618V9.729C10.7062 9.8415 11.5605 10.6679 11.9036 11.736H13.5C13.0615 10.1394 11.9092 9.25686 11.1895 8.91954C11.9092 8.50356 12.9209 7.4916 13.1627 6.12H11.7122C11.3974 7.23312 10.4645 8.2449 9.57618 8.34048V6.12H8.12592V10.01C7.22646 9.78516 6.09084 8.69472 6.04008 6.12H4.5Z" fill="#0077FF"/>
<path d="M4.5 6.12012C4.57308 9.62796 6.327 11.7361 9.40194 11.7361H9.57618V9.72912C10.7062 9.84162 11.5605 10.668 11.9036 11.7361H13.5C13.0615 10.1395 11.9092 9.25698 11.1895 8.91966C11.9092 8.50368 12.9209 7.49172 13.1627 6.12012H11.7122C11.3974 7.23324 10.4645 8.24502 9.57618 8.3406V6.12012H8.12592V10.0101C7.22646 9.78528 6.09084 8.69484 6.04008 6.12012H4.5Z" fill="white"/>
</svg>
