<svg width="18" height="18" viewBox="0 0 18 18" fill="none" xmlns="http://www.w3.org/2000/svg">
<mask id="mask0_3671_2113" style="mask-type:luminance" maskUnits="userSpaceOnUse" x="0" y="0" width="18" height="18">
<path d="M18 9C18 4.02944 13.9706 0 9 0C4.02944 0 0 4.02944 0 9C0 13.9706 4.02944 18 9 18C13.9706 18 18 13.9706 18 9Z" fill="white"/>
</mask>
<g mask="url(#mask0_3671_2113)">
<path fill-rule="evenodd" clip-rule="evenodd" d="M9 18C13.9706 18 18 13.9706 18 9C18 4.02944 13.9706 0 9 0C4.02944 0 0 4.02944 0 9C0 13.9706 4.02944 18 9 18ZM12.5573 5.2187C11.6311 4.29138 10.3993 3.78049 9.08698 3.78C6.38309 3.78 4.18223 5.98054 4.18126 8.6854C4.18093 9.55003 4.40681 10.394 4.83602 11.1378L4.14 13.68L6.74059 12.9979C7.45708 13.3888 8.26393 13.5947 9.08485 13.595H9.08681C11.7905 13.595 13.9914 11.3942 13.9925 8.68948C13.9933 7.37847 13.4836 6.14603 12.5573 5.2187ZM11.3235 9.71258C11.2009 9.65121 10.5984 9.35474 10.4859 9.31383C10.3736 9.2729 10.2918 9.25243 10.2101 9.37521C10.1284 9.49799 9.89352 9.77396 9.82199 9.85581C9.75046 9.93766 9.67892 9.94781 9.55647 9.88643C9.53669 9.87651 9.50978 9.86485 9.47664 9.85046C9.47621 9.85027 9.47579 9.85009 9.47536 9.84991C9.30274 9.77503 8.96229 9.62739 8.57072 9.27797C8.20633 8.95288 7.9603 8.55151 7.88877 8.4289C7.81724 8.30614 7.88107 8.23984 7.94246 8.17877C7.97918 8.14214 8.02138 8.09079 8.06355 8.03943L8.06377 8.03916C8.08483 8.01349 8.1059 7.98782 8.12628 7.96401C8.17816 7.9034 8.20075 7.85738 8.23135 7.79508L8.23144 7.79488C8.23693 7.78369 8.24267 7.77197 8.2489 7.75957C8.28981 7.67772 8.26936 7.60617 8.23874 7.54479C8.21844 7.50407 8.10373 7.22489 7.99895 6.96992C7.99823 6.96816 7.99749 6.96638 7.99677 6.96461C7.99614 6.9631 7.99553 6.96159 7.9949 6.96006C7.9432 6.83424 7.8943 6.71517 7.86078 6.63466C7.7729 6.42366 7.68389 6.4242 7.61243 6.42463C7.60295 6.4247 7.59377 6.42476 7.58495 6.42431C7.51358 6.42071 7.43173 6.42006 7.35005 6.42006C7.26836 6.42006 7.13561 6.45066 7.02315 6.57344C7.01591 6.58136 7.00781 6.59 6.99901 6.59939C6.87128 6.73576 6.59412 7.03166 6.59412 7.59604C6.59412 8.19792 7.03116 8.77946 7.09423 8.8634L7.0947 8.86399C7.09852 8.8691 7.10523 8.87875 7.11479 8.89243C7.11518 8.89301 7.11558 8.89358 7.11599 8.89418C7.26232 9.10408 8.03907 10.2184 9.18866 10.7149C9.48118 10.8412 9.70936 10.9166 9.88745 10.973C10.1811 11.0663 10.4483 11.0532 10.6596 11.0216C10.8951 10.9864 11.3848 10.7252 11.4869 10.4389C11.589 10.1526 11.589 9.90706 11.5584 9.85597C11.5338 9.81464 11.4758 9.78662 11.39 9.74511C11.3694 9.73517 11.3472 9.72445 11.3235 9.71258Z" fill="#27D061"/>
<path fill-rule="evenodd" clip-rule="evenodd" d="M12.5574 5.21849C11.6312 4.29117 10.3994 3.78027 9.08711 3.77979C6.38322 3.77979 4.18236 5.98032 4.18139 8.68518C4.18107 9.54981 4.40695 10.3938 4.83616 11.1376L4.14014 13.6798L6.74072 12.9977C7.45721 13.3886 8.26406 13.5945 9.08499 13.5948H9.08695C11.7907 13.5948 13.9915 11.394 13.9927 8.68927C13.9935 7.37826 13.4837 6.14581 12.5574 5.21849ZM10.4861 9.31362C10.5985 9.35453 11.2011 9.65099 11.3237 9.71237C11.3474 9.72423 11.3695 9.73496 11.3901 9.7449C11.4759 9.7864 11.5339 9.81443 11.5586 9.85576C11.5892 9.90684 11.5892 10.1524 11.487 10.4387C11.3849 10.725 10.8953 10.9862 10.6597 11.0214C10.4484 11.053 10.1813 11.0661 9.88759 10.9728C9.7095 10.9163 9.48131 10.841 9.18879 10.7147C8.03931 10.2183 7.26256 9.10402 7.11613 8.89396L7.11492 8.89222C7.10537 8.87854 7.09865 8.86889 7.09484 8.86378L7.09437 8.86318C7.0313 8.77925 6.59426 8.19771 6.59426 7.59582C6.59426 7.03145 6.87142 6.73555 6.99915 6.59918C7.00795 6.58978 7.01605 6.58114 7.02329 6.57322C7.13575 6.45045 7.2685 6.41985 7.35018 6.41985C7.43187 6.41985 7.51371 6.42049 7.58508 6.42409C7.5939 6.42454 7.60309 6.42449 7.61257 6.42442C7.68403 6.42399 7.77304 6.42345 7.86092 6.63444C7.89443 6.71496 7.94334 6.83403 7.99503 6.95985L7.99691 6.9644L7.99908 6.96971C8.10386 7.22468 8.21858 7.50386 8.23888 7.54458C8.2695 7.60596 8.28995 7.67751 8.24903 7.75935C8.24281 7.77175 8.23706 7.78347 8.23157 7.79467L8.23148 7.79487C8.20088 7.85716 8.17829 7.90319 8.12642 7.9638C8.10604 7.98761 8.08496 8.01328 8.0639 8.03895L8.06369 8.03922C8.02151 8.09057 7.97932 8.14192 7.9426 8.17855C7.8812 8.23963 7.81737 8.30592 7.88891 8.42868C7.96044 8.5513 8.20646 8.95266 8.57086 9.27776C8.96243 9.62718 9.30288 9.77481 9.4755 9.84969L9.47678 9.85025C9.50991 9.86463 9.53682 9.8763 9.55661 9.88621C9.67906 9.94759 9.75059 9.93744 9.82212 9.8556C9.89366 9.77375 10.1286 9.49777 10.2102 9.375C10.2919 9.25222 10.3738 9.27268 10.4861 9.31362Z" fill="white"/>
</g>
</svg>
