<svg width="24" height="24" viewBox="0 0 24 24" fill="none" xmlns="http://www.w3.org/2000/svg">
<path d="M21.5247 5.97527C18.1619 0.790844 11.296 -0.75047 5.97147 2.47228C0.787049 5.69503 -0.894385 12.701 2.46848 17.8854L2.74872 18.3058L1.62777 22.5094L5.83135 21.3884L6.25171 21.6686C8.07326 22.6495 10.0349 23.21 11.9966 23.21C14.0984 23.21 16.2002 22.6495 18.0217 21.5285C23.2062 18.1657 24.7475 11.2998 21.5247 5.97527ZM18.5822 16.7645C18.0217 17.6052 17.3211 18.1657 16.3403 18.3058C15.7798 18.3058 15.0792 18.586 12.2768 17.4651C9.89482 16.3441 7.93314 14.5226 6.53195 12.4208C5.69123 11.4399 5.27087 10.1789 5.13075 8.91778C5.13075 7.79682 5.55111 6.81598 6.25171 6.11539C6.53195 5.83515 6.81219 5.69503 7.09243 5.69503H7.79302C8.07326 5.69503 8.3535 5.69503 8.49362 6.2555C8.77386 6.9561 9.47446 8.63754 9.47446 8.77765C9.61458 8.91777 9.61458 9.19801 9.47446 9.33813C9.61458 9.61837 9.47446 9.89861 9.33434 10.0387C9.19422 10.1789 9.0541 10.4591 8.91398 10.5992C8.63374 10.7393 8.49362 11.0196 8.63374 11.2998C9.19422 12.1405 9.89482 12.9812 10.5954 13.6818C11.4361 14.3824 12.2768 14.9429 13.2577 15.3633C13.5379 15.5034 13.8182 15.5034 13.9583 15.2232C14.0984 14.9429 14.799 14.2423 15.0792 13.9621C15.3595 13.6818 15.4996 13.6818 15.7798 13.822L18.0217 14.9429C18.302 15.083 18.5822 15.2232 18.7223 15.3633C18.8625 15.7836 18.8625 16.3441 18.5822 16.7645Z" fill="#2F343F"/>
</svg>
